<svg width="12" height="16" viewBox="0 0 12 16" fill="none" xmlns="http://www.w3.org/2000/svg">
<path d="M11.0801 6.98222C10.7595 6.22688 10.3009 5.55785 9.71741 4.99563L9.23911 4.53519C9.16841 4.46967 9.05671 4.49903 9.02551 4.59212L8.81171 5.23539C8.67851 5.6389 8.43371 6.05105 8.08691 6.45631C8.06921 6.47637 8.04521 6.48866 8.01951 6.49077C8.00661 6.492 7.99371 6.49034 7.98151 6.48588C7.96941 6.48142 7.95821 6.47427 7.94881 6.4649C7.93771 6.45476 7.92891 6.442 7.92321 6.42763C7.91751 6.41326 7.91501 6.39767 7.91591 6.3821C7.97671 5.34401 7.68091 4.17313 7.03321 2.89883C6.49739 1.83991 5.75281 1.01396 4.82247 0.437962L4.1437 0.0189221C4.05494 -0.0362079 3.94154 0.0362021 3.94646 0.144822L3.98262 0.972512C4.00726 1.53818 3.94482 2.03827 3.79694 2.45387C3.61614 2.9625 3.35636 3.43507 3.02435 3.85931C2.791 4.15595 2.52967 4.42318 2.24362 4.65424C1.55164 5.21122 0.98136 5.93719 0.59502 6.74945C0.20545 7.57026 0 8.48939 0 9.41023C0 10.2242 0.15284 11.0122 0.45529 11.7555C0.74786 12.4711 1.16535 13.1161 1.69624 13.6679C2.22882 14.2197 2.84683 14.6543 3.53552 14.9561C4.24895 15.2699 5.00505 15.4285 5.78574 15.4285C6.56648 15.4285 7.32251 15.2699 8.03591 14.9578C8.72461 14.656 9.34431 14.2232 9.87521 13.6696C10.4077 13.1178 10.8252 12.4729 11.1161 11.7571C11.4186 11.014 11.5714 10.2259 11.5714 9.41203C11.5714 8.57044 11.4071 7.75308 11.0801 6.98222Z" fill="url(#paint0_linear_18680_1761)"/>
<defs>
<linearGradient id="paint0_linear_18680_1761" x1="5.78572" y1="2.10363e-06" x2="5.78572" y2="15.4285" gradientUnits="userSpaceOnUse">
<stop stop-color="#669AFF"/>
<stop offset="1" stop-color="#1463FF"/>
</linearGradient>
</defs>
</svg>
