<?xml version="1.0" standalone="no"?>
<!DOCTYPE svg PUBLIC "-//W3C//DTD SVG 20010904//EN"
 "http://www.w3.org/TR/2001/REC-SVG-20010904/DTD/svg10.dtd">
<svg version="1.0" xmlns="http://www.w3.org/2000/svg"
 width="51.000000pt" height="42.000000pt" viewBox="0 0 51.000000 42.000000"
 preserveAspectRatio="xMidYMid meet">

<g transform="translate(0.000000,42.000000) scale(0.100000,-0.100000)"
fill="#000000" stroke="none">
<path d="M81 346 c-10 -12 -15 -98 -12 -223 1 -14 11 -24 31 -32 20 -7 30 -17
30 -30 0 -27 24 -27 81 -1 31 13 66 20 115 20 106 0 115 11 122 133 4 79 2
101 -12 122 l-16 25 -164 0 c-129 0 -166 -3 -175 -14z m321 -118 c2 -51 3 -96
1 -100 -3 -5 -36 -8 -74 -8 -50 0 -82 -6 -111 -20 -50 -24 -45 -24 -51 -1 -3
12 -15 21 -33 23 -25 3 -29 8 -32 38 -2 19 -1 63 3 98 l7 62 143 0 143 0 4
-92z"/>
</g>
</svg>
